<svg xmlns="http://www.w3.org/2000/svg" xmlns:xlink="http://www.w3.org/1999/xlink" width="82" height="89" fill="none" xmlns:v="https://vecta.io/nano"><style><![CDATA[.B{fill-rule:evenodd}.C{color-interpolation-filters:sRGB}]]></style><g filter="url(#C)" class="B"><path d="M41 70c12.15 0 22-9.85 22-22s-9.85-22-22-22-22 9.85-22 22 9.85 22 22 22z" fill="#000" fill-opacity=".01"/></g><g filter="url(#D)"><path d="M41 70c16.57 0 30-13.43 30-30S57.57 10 41 10 11 23.432 11 40s13.432 30 30 30z" fill="#2196f3" class="B"/><path d="M69 40c0 15.464-12.536 28-28 28S13 55.464 13 40s12.536-28 28-28 28 12.536 28 28z" stroke="#42a5f5" stroke-width="4"/></g><mask id="A" mask-type="alpha" maskUnits="userSpaceOnUse" x="11" y="10" width="60" height="60"><path d="M41 70c16.57 0 30-13.43 30-30S57.57 10 41 10 11 23.432 11 40s13.432 30 30 30z" fill="#fff" class="B"/></mask><g mask="url(#A)" stroke="#42a5f5" stroke-width="4"><g stroke-linecap="square"><path d="M13.714 32.875h53.822m-53.822 15.75h53.822"/></g><g stroke-linecap="round" stroke-linejoin="round"><path d="M40.25 14.5s-9.962 11.578-9.747 26.25S40.25 65.5 40.25 65.5m.75-51s9.962 11.578 9.746 26.25S41 65.5 41 65.5"/></g></g><use xlink:href="#E" fill="#fff" class="B"/><mask id="B" mask-type="alpha" maskUnits="userSpaceOnUse" x="16" y="13" width="50" height="51"><use xlink:href="#E" fill="#fff" class="B"/></mask><g mask="url(#B)"><path transform="rotate(60 45.536 30.784)" fill="#ebecf2" d="M45.536 30.784h1.31v12.408h-1.31z"/><g class="B"><g fill="#dee1e3"><path d="M48.92 55.89a.65.65 0 0 0 .315-.589l-.87-17.66-9.236 5.333L45.81 56.05a.65.65 0 0 0 .366.318l.947.327a.65.65 0 0 0 .546-.057l1.25-.748z"/><path opacity=".4" d="M28.837 47.8l-.09.05 1.816 4.075a.65.65 0 0 0 .581.385l.498.01a.65.65 0 0 0 .655-.555l.726-4.934-.463.267a1.63 1.63 0 0 1-.459.181c-.55.123-1.946.414-3.265.52z"/></g><path d="M39.248 43.213l9.13-5.27.1 2.01-7.52 6.6-1.708-3.34z" fill="#c5c6cc"/><path d="M57.482 32.952l-29.79 17.2-1.637-2.905c1.352.098 4.073-.012 6.712-1.536L53.39 33.804c2.292-1.323 2.853-3.036 3.162-3.773l.93 2.92z" fill="#dee1e3"/></g></g><defs><filter id="C" x="8" y="23" width="66" height="66" filterUnits="userSpaceOnUse" class="C"><feFlood flood-opacity="0" result="A"/><feColorMatrix in="SourceAlpha" values="0 0 0 0 0 0 0 0 0 0 0 0 0 0 0 0 0 0 127 0"/><feOffset dy="8"/><feGaussianBlur stdDeviation="5.5"/><feColorMatrix values="0 0 0 0 0.215686 0 0 0 0 0.407843 0 0 0 0 0.556863 0 0 0 0.25 0"/><feBlend in2="A"/><feBlend in="SourceGraphic"/></filter><filter id="D" x="0" y="0" width="82" height="82" filterUnits="userSpaceOnUse" class="C"><feFlood flood-opacity="0" result="A"/><feColorMatrix in="SourceAlpha" values="0 0 0 0 0 0 0 0 0 0 0 0 0 0 0 0 0 0 127 0"/><feOffset dy="1"/><feGaussianBlur stdDeviation="5.5"/><feColorMatrix values="0 0 0 0 0.215686 0 0 0 0 0.407843 0 0 0 0 0.556863 0 0 0 0.3 0"/><feBlend in2="A"/><feBlend in="SourceGraphic"/></filter><path id="E" d="M51.195 29.028c.2-.116.42-.187.65-.202 1.017-.064 3.952-.148 4.59.955s-.905 3.603-1.47 4.45c-.128.192-.3.347-.5.462L48.4 38.202l.844 17.1a.65.65 0 0 1-.315.589l-1.25.748a.65.65 0 0 1-.546.057l-.947-.327a.65.65 0 0 1-.366-.318L39.353 43.42l-6.37 3.677-.687 4.67a.65.65 0 0 1-.655.555l-.498-.01a.65.65 0 0 1-.581-.385l-1.8-4.016c-1.23.04-2.385-.082-2.695-.618s.164-1.592.814-2.633l-2.564-3.53a.65.65 0 0 1-.043-.695l.24-.436a.65.65 0 0 1 .808-.29l4.362 1.73 6.38-3.684-7.66-11.83a.65.65 0 0 1-.093-.476l.2-.983a.65.65 0 0 1 .322-.444l1.273-.708a.65.65 0 0 1 .668.022l14.298 9.223 6.118-3.532z"/></defs></svg>